<svg xmlns="http://www.w3.org/2000/svg" width="325.435" height="102.62" viewBox="0 0 325.435 102.62">
  <g id="Group_56284" data-name="Group 56284" transform="translate(-11785.777 -1327.312)">
    <path id="Path_37447" data-name="Path 37447" d="M33.377,29.541h-15.9V70.123h15.9Z" transform="translate(11809.127 1357.546)" fill="#695bf9"/>
    <path id="Path_37448" data-name="Path 37448" d="M50.818,48.378q0-6.871-4.792-6.871c-3.126,0-4.7,2.286-4.7,6.871V70.594H25.438V30.05H41.325v5.011q3.63-5.851,11.263-5.864,14.13,0,14.117,17.669V70.633H50.818Z" transform="translate(11820.941 1357.036)" fill="#695bf9"/>
    <path id="Path_37449" data-name="Path 37449" d="M74.276,65.611q-3.461,5.877-11.624,5.864a17.658,17.658,0,0,1-13.614-5.967A21.661,21.661,0,0,1,43.6,50.344,21.661,21.661,0,0,1,49.038,35.18,17.669,17.669,0,0,1,62.651,29.2q8.1,0,11.624,5.941V30.053H90.163V70.635H74.276ZM61.592,56.828a7.078,7.078,0,0,0,10.875,0,11.314,11.314,0,0,0,0-12.916,7.078,7.078,0,0,0-10.875,0,11.264,11.264,0,0,0,0,12.916Z" transform="translate(11847.869 1357.034)" fill="#695bf9"/>
    <path id="Path_37450" data-name="Path 37450" d="M89.27,48.378q0-6.871-4.779-6.871t-4.7,6.871V70.594H63.9V30.05H79.79v5.011q3.63-5.851,11.263-5.864,14.117,0,14.117,17.669V70.633H89.27Z" transform="translate(11878.017 1357.036)" fill="#695bf9"/>
    <path id="Path_37451" data-name="Path 37451" d="M88.833,35.163a24.437,24.437,0,0,1,17.075-6.122q10.656,0,17.2,6.316l-7.633,9.4a12.58,12.58,0,0,0-8.486-3.4,8.9,8.9,0,0,0-6.458,2.506,9.235,9.235,0,0,0,0,12.735,8.9,8.9,0,0,0,6.458,2.506,12.58,12.58,0,0,0,8.486-3.4l7.633,9.338q-6.548,6.316-17.2,6.329a24.449,24.449,0,0,1-17.075-6.135,20.045,20.045,0,0,1,0-30.017Z" transform="translate(11904.982 1356.78)" fill="#695bf9"/>
    <path id="Path_37452" data-name="Path 37452" d="M105,65.508A19.634,19.634,0,0,1,98.543,50.5a20.8,20.8,0,0,1,6.11-15.034q6.1-6.238,16.6-6.251a23.355,23.355,0,0,1,16.08,5.593q6.274,5.605,6.289,15.086a13.429,13.429,0,0,1-.387,3.629H113.4c0,1.292.956,2.687,2.854,4.043a12.71,12.71,0,0,0,7.568,2.054,17.179,17.179,0,0,0,10.954-3.875l6.547,8.8q-6.934,7.013-18.895,7.013Q111.46,71.475,105,65.508Zm10.837-23.585a5.3,5.3,0,0,0-2.442,4.249h15.9a5.274,5.274,0,0,0-2.506-4.249,10.446,10.446,0,0,0-10.951,0Z" transform="translate(11929.411 1357.034)" fill="#695bf9"/>
    <path id="Path_37453" data-name="Path 37453" d="M17.043,21.658h-16V74.1h16V37.674H40.189V21.658Z" transform="translate(11784.737 1345.848)" fill="#695bf9"/>
    <path id="Path_37454" data-name="Path 37454" d="M21.84,29.671H9.027V42.484" transform="translate(11796.588 1357.739)" fill="#695bf9"/>
    <g id="Group_56283" data-name="Group 56283" transform="translate(11909.529 1327.312)">
      <path id="Path_37455" data-name="Path 37455" d="M47.928,5.476h7.155l20.472,44.6L96.1,5.476h7.22V58.341H96.867V18.211h-.375L78.01,58.341H73.179l-18.47-40.13h-.375v40.13H47.876Z" transform="translate(-47.876 -5.476)" fill="#fff"/>
      <path id="Path_37456" data-name="Path 37456" d="M71.76,30.978c0-12.916,10.062-20.11,20.11-20.11s20.1,7.155,20.1,20.11-10.049,20.059-20.1,20.059S71.76,43.933,71.76,30.978Zm33.956,0c0-9.157-6.7-14.376-13.846-14.376S78.011,21.769,78.011,30.978,84.676,45.354,91.87,45.354,105.716,40.136,105.716,30.978Z" transform="translate(-12.437 2.526)" fill="#fff"/>
      <path id="Path_37457" data-name="Path 37457" d="M123.879,27.533V50.316h-6.252V28.359c0-7.75-4.623-11.844-10.8-11.844S95.775,20.61,95.775,28.424V50.381H89.523V11.633h6.251v6.329c2.015-3.72,6.251-7.078,12.916-7.078C116.88,10.845,123.879,15.921,123.879,27.533Z" transform="translate(13.922 2.549)" fill="#fff"/>
      <path id="Path_37458" data-name="Path 37458" d="M115.9,22.228v24.54c0,2.377,1.187,3.875,4.093,3.875a9.922,9.922,0,0,0,3.5-.672v5a8.887,8.887,0,0,1-5.166,1.292c-5.166,0-8.626-2.519-8.626-8.331v-25.7h-5.166V17.062H109.7V7.181h6.249v9.907h7.673v5.166Z" transform="translate(36.198 -2.945)" fill="#fff"/>
      <path id="Path_37459" data-name="Path 37459" d="M152.2,11.17,135.745,49.918,129.57,64.035h-6.187l6.458-14.518L113.49,11.17h6.458l12.916,31,12.916-31Z" transform="translate(49.484 2.973)" fill="#fff"/>
    </g>
    <text id="Sal" transform="translate(12089.255 1422.932)" fill="#695bf9" stroke="rgba(0,0,0,0)" stroke-width="1" font-size="18" font-family="Poppins-Bold, Poppins" font-weight="700"><tspan x="-16.461" y="0">SAL</tspan></text>
  </g>
</svg>
